# xmcd
# Track frame offsets:
# 150
# 14320
# 24464
# 36992
# 49479
# 64485
# 82509
# 94969
# 108242
# 121240
# 132718
# 146163
# 159684
# 172571
# 189217
# 205949
# 220775
# 242840
# 256843
# 268808
#
# Disc length: 3755 seconds
# Revision: 0
# Processed by: cddbd v1.4PL0 Copyright (c) Steve Scherf et al.
# Submitted via: VisiTrax 2.9.5.181 - For more info visit www.synapsa.com
#
DISCID=1c0ea914
DTITLE=Merle Haggard - The Ultimate Collection
DYEAR=1900
DGENRE=
TTITLE0=The Fugitive
TTITLE1=Mama Tried
TTITLE2=Okie From Muskogee
TTITLE3=If We Make It Through December
TTITLE4=If We're Not Back In Love By Monday
TTITLE5=Ramblin' Fever
TTITLE6=From Graceland To The Promised Land
TTITLE7=I'm Always On A Mountain When I Fall
TTITLE8=It's Been A Great Afternoon
TTITLE9=Red Bandana
TTITLE10=My Own Kind Of Hat
TTITLE11=The Way I Am
TTITLE12=Misery And Gin
TTITLE13=I Think I'll Just Stay Here And Drink
TTITLE14=Leonard
TTITLE15=Yesterday's Wine (with George Jones)
TTITLE16=Poncho and Lefty (with Willie Nelson)
TTITLE17=That's The Way Love Goes
TTITLE18=Rainbow Stew
TTITLE19=Sing Me Back Home
EXTD=
EXTT0=
EXTT1=
EXTT2=
EXTT3=
EXTT4=
EXTT5=
EXTT6=
EXTT7=
EXTT8=
EXTT9=
EXTT10=
EXTT11=
EXTT12=
EXTT13=
EXTT14=
EXTT15=
EXTT16=
EXTT17=
EXTT18=
EXTT19=
PLAYORDER=
